<svg xmlns="http://www.w3.org/2000/svg" version="1.1" xmlns:xlink="http://www.w3.org/1999/xlink" xmlns:svgjs="http://svgjs.dev/svgjs" width="2000" height="702" viewBox="0 0 2000 702"><g transform="matrix(1,0,0,1,-1.2120897740439887,0.460598246172367)"><svg viewBox="0 0 396 139" data-background-color="#77d4fc" preserveAspectRatio="xMidYMid meet" height="702" width="2000" xmlns="http://www.w3.org/2000/svg" xmlns:xlink="http://www.w3.org/1999/xlink"><g id="tight-bounds" transform="matrix(1,0,0,1,0.2399937752607002,-0.09120107723356341)"><svg viewBox="0 0 395.52 139.18240215446713" height="139.18240215446713" width="395.52"><g><svg viewBox="0 0 694.6100226083581 244.43135999999998" height="139.18240215446713" width="395.52"><g transform="matrix(1,0,0,1,299.0900226083581,75.90969158240725)"><svg viewBox="0 0 395.52 92.61197683518547" height="92.61197683518547" width="395.52"><g id="textblocktransform"><svg viewBox="0 0 395.52 92.61197683518547" height="92.61197683518547" width="395.52" id="textblock"><g><svg viewBox="0 0 395.52 92.61197683518547" height="92.61197683518547" width="395.52"><g transform="matrix(1,0,0,1,0,0)"><svg width="395.52" viewBox="2.0799999237060547 -36.040000915527344 155.95999145507812 36.53000259399414" height="92.61197683518547" data-palette-color="#000000"><path d="M19.36-8.98L19.36-8.98Q19.36-11.65 17.92-13.06 16.48-14.48 12.72-15.82 8.96-17.16 6.97-18.64 4.98-20.12 3.99-22.01 3-23.9 3-26.34L3-26.34Q3-30.57 5.82-33.3 8.64-36.04 13.21-36.04L13.21-36.04Q16.33-36.04 18.77-34.63 21.22-33.23 22.53-30.74 23.85-28.25 23.85-25.27L23.85-25.27 19.36-25.27Q19.36-28.56 17.77-30.37 16.19-32.18 13.21-32.18L13.21-32.18Q10.5-32.18 9.01-30.66 7.52-29.15 7.52-26.42L7.52-26.42Q7.52-24.17 9.13-22.66 10.74-21.14 14.11-19.95L14.11-19.95Q19.36-18.21 21.62-15.67 23.88-13.13 23.88-9.03L23.88-9.03Q23.88-4.71 21.07-2.11 18.26 0.49 13.43 0.49L13.43 0.49Q10.33 0.49 7.7-0.87 5.08-2.22 3.58-4.68 2.08-7.13 2.08-10.3L2.08-10.3 6.57-10.3Q6.57-7.01 8.41-5.18 10.25-3.34 13.43-3.34L13.43-3.34Q16.38-3.34 17.87-4.86 19.36-6.37 19.36-8.98ZM41.38-13.92L34.2-13.92 34.2 0 29.73 0 29.73-35.55 41.06-35.55Q46.02-35.55 48.85-32.58 51.68-29.61 51.68-24.68L51.68-24.68Q51.68-19.56 48.98-16.78 46.29-14.01 41.38-13.92L41.38-13.92ZM34.2-31.69L34.2-17.75 41.06-17.75Q44.04-17.75 45.63-19.53 47.21-21.31 47.21-24.63L47.21-24.63Q47.21-27.83 45.58-29.76 43.94-31.69 41.09-31.69L41.09-31.69 34.2-31.69ZM69.09-13.92L61.91-13.92 61.91 0 57.44 0 57.44-35.55 68.77-35.55Q73.73-35.55 76.56-32.58 79.39-29.61 79.39-24.68L79.39-24.68Q79.39-19.56 76.69-16.78 73.99-14.01 69.09-13.92L69.09-13.92ZM61.91-31.69L61.91-17.75 68.77-17.75Q71.75-17.75 73.33-19.53 74.92-21.31 74.92-24.63L74.92-24.63Q74.92-27.83 73.29-29.76 71.65-31.69 68.79-31.69L68.79-31.69 61.91-31.69ZM102.19-20.26L102.19-16.43 89.62-16.43 89.62-3.83 104.26-3.83 104.26 0 85.15 0 85.15-35.55 104.02-35.55 104.02-31.69 89.62-31.69 89.62-20.26 102.19-20.26ZM127.02-20.26L127.02-16.43 114.44-16.43 114.44-3.83 129.09-3.83 129.09 0 109.98 0 109.98-35.55 128.85-35.55 128.85-31.69 114.44-31.69 114.44-20.26 127.02-20.26ZM152.7 0L142.76-16.38 139.27-12.16 139.27 0 134.8 0 134.8-35.55 139.27-35.55 139.27-18.38 142.2-22.27 151.77-35.55 157.14-35.55 145.59-19.9 158.04 0 152.7 0Z" opacity="1" transform="matrix(1,0,0,1,0,0)" fill="#ffffff" class="wordmark-text-0" data-fill-palette-color="primary" id="text-0"></path></svg></g></svg></g></svg></g></svg></g><g><svg viewBox="0 0 244.43135999999998 244.43135999999998" height="244.43135999999998" width="244.43135999999998"><g><svg viewBox="0 0 244.43135999999998 244.43135999999998" height="244.43135999999998" width="244.43135999999998"><g transform="matrix(1,0,0,1,68.2034699404218,64.60265593644992)"><svg viewBox="0 0 108.02442011915639 115.22604812710014" height="115.22604812710014" width="108.02442011915639"><g><svg xmlns="http://www.w3.org/2000/svg" data-name="Layer 1" viewBox="4 0 120 128" x="0" y="0" height="115.22604812710014" width="108.02442011915639" class="icon-s-0" data-fill-palette-color="accent" id="s-0"><path d="M6 0A2 2 0 0 0 4 2V24a2 2 0 0 0 4 0V2A2 2 0 0 0 6 0Z" fill="#ffffff" data-fill-palette-color="accent"></path><path d="M14 0a2 2 0 0 0-2 2V12a2 2 0 0 0 4 0V2A2 2 0 0 0 14 0Z" fill="#ffffff" data-fill-palette-color="accent"></path><path d="M122 0a2 2 0 0 0-2 2V24a2 2 0 0 0 4 0V2A2 2 0 0 0 122 0Z" fill="#ffffff" data-fill-palette-color="accent"></path><path d="M114 0a2 2 0 0 0-2 2V12a2 2 0 0 0 4 0V2A2 2 0 0 0 114 0Z" fill="#ffffff" data-fill-palette-color="accent"></path><path d="M102 0H26a6 6 0 0 0-6 6V126s0 0.08 0 0.11a2 2 0 0 0 0.11 0.56 1.92 1.92 0 0 0 0.13 0.23l0 0.09a1.92 1.92 0 0 0 2.21 0.93A2 2 0 0 0 23 128h79a6 6 0 0 0 6-6V6A6 6 0 0 0 102 0ZM63 70a14.9 14.9 0 0 0 11.69-6.9 2 2 0 0 0-3.38-2.14 10.9 10.9 0 0 1-8.31 5V24c12.77 0.57 23 12 23 26S75.77 75.4 63 76Zm0 10a26.7 26.7 0 0 0 15.78-6h1.35A6 6 0 0 1 86 78.52a3.47 3.47 0 0 1-0.6 2L71.71 99.78l-6.59-1.36q0.09-0.39 0.17-0.79l0.08-0.4s0-0.1 0-0.15l0.47-3.65a7.07 7.07 0 0 0 0.1-1.69l0.28 0.11a2 2 0 1 0 1.49-3.71L63 86.25Zm-5.29 31.11l-31 11.75A2 2 0 0 1 24 121L24 10.37a2 2 0 0 1 2.32-2l31 5a2 2 0 0 1 1.68 2V84h0A4 4 0 0 0 55 83.79a4.31 4.31 0 0 0-2 2.5L51.7 85.4a2.07 2.07 0 0 0-2.65 0.23 2 2 0 0 0 0.35 3l3 2 0.13 0.06L52.43 92H49.11A2.07 2.07 0 0 0 47 93.66 2 2 0 0 0 49 96h3.15L52 98.06a2 2 0 0 0 1.51 2.08L59 101.51v7.71A2 2 0 0 1 57.71 111.08ZM61.94 92.7s0 0.1 0 0.15l-0.47 3.65-0.07 0.34c0 0.25-0.11 0.52-0.17 0.78l-0.2 0v0.31l-4.89-1.22 0.6-8.53a1.89 1.89 0 0 1 0.19-0.76l0.12 0.06 3.07 1.72A3.26 3.26 0 0 1 61.94 92.7Zm31.8-16.17a11 11 0 0 1-1.83 8.57L77.48 105.47a6 6 0 0 1-6.11 2.41L63 106.15v-4.08L72.18 104a2 2 0 0 0 0.4 0 2 2 0 0 0 1.63-0.84L88.65 82.79a7.09 7.09 0 0 0 1.22-5.27 10 10 0 0 0-7.28-7.22A31.08 31.08 0 0 0 90 50c0-16.18-12-29.41-27-30V16c17.18 0.56 31 15.58 31 34a35.31 35.31 0 0 1-5.38 18.85A14 14 0 0 1 93.74 76.53Z" fill="#ffffff" data-fill-palette-color="accent"></path><path d="M81 43a7 7 0 1 0-12.4 4.45q0.21 0.26 0.45 0.5A7 7 0 0 0 81 43Zm-4.07 0.64s0 0.07 0 0.1a2.94 2.94 0 0 1-0.17 0.5l0 0a3.06 3.06 0 0 1-0.72 1A2 2 0 0 0 76 45a2 2 0 0 0-4 0 2 2 0 0 0 0 0.24 3.06 3.06 0 0 1-0.72-1l0 0a2.94 2.94 0 0 1-0.17-0.5s0-0.07 0-0.1A2.93 2.93 0 0 1 71 43a3 3 0 0 1 6 0A2.93 2.93 0 0 1 76.93 43.64Z" fill="#ffffff" data-fill-palette-color="accent"></path><path d="M53 68a2 2 0 0 0 2-2V60a2 2 0 0 0-4 0v6A2 2 0 0 0 53 68Z" fill="#ffffff" data-fill-palette-color="accent"></path></svg></g></svg></g><g><path d="M22.396 83.868v0c-1.278-0.44-2.379-0.429-3.303 0.033-0.921 0.455-2.017 1.479-3.287 3.073-1.268 1.587-2.424 2.737-3.47 3.449-1.039 0.715-2.098 1.155-3.177 1.32-1.073 0.167-2.197 0.049-3.373-0.356v0c-2.039-0.701-3.483-1.959-4.332-3.773-0.849-1.814-0.895-3.821-0.139-6.02v0c0.519-1.509 1.316-2.736 2.392-3.681 1.082-0.943 2.333-1.525 3.752-1.744 1.422-0.226 2.851-0.092 4.289 0.403v0l-1.117 3.25c-1.592-0.547-2.954-0.587-4.088-0.118-1.131 0.462-1.944 1.412-2.438 2.85v0c-0.448 1.304-0.432 2.442 0.048 3.415 0.483 0.967 1.382 1.676 2.699 2.129v0c1.08 0.371 2.122 0.294 3.126-0.233 0.995-0.523 2.059-1.497 3.192-2.924v0c1.708-2.243 3.359-3.699 4.953-4.365 1.603-0.671 3.392-0.667 5.368 0.012v0c2.084 0.717 3.519 1.968 4.306 3.754 0.787 1.786 0.78 3.842-0.02 6.169v0c-0.514 1.496-1.315 2.764-2.402 3.806-1.094 1.039-2.356 1.717-3.787 2.032-1.433 0.322-2.914 0.22-4.441-0.304v0l1.118-3.251c1.592 0.547 2.981 0.528 4.169-0.057 1.188-0.585 2.045-1.645 2.572-3.179v0c0.488-1.419 0.492-2.615 0.012-3.588-0.489-0.969-1.363-1.67-2.622-2.102z" fill="#ffffff" data-fill-palette-color="accent"></path><path d="M48.21 41.673l-4.003 3.751 7.273 7.761-2.493 2.336-18.588-19.835 6.318-5.921c1.845-1.729 3.812-2.535 5.904-2.42 2.086 0.12 3.989 1.098 5.708 2.933v0c1.784 1.904 2.659 3.84 2.623 5.81-0.04 1.974-0.954 3.835-2.742 5.585zM34.91 35.502l7.293 7.783 3.825-3.584c1.11-1.04 1.649-2.17 1.617-3.391-0.032-1.211-0.629-2.435-1.789-3.673v0c-1.114-1.189-2.309-1.856-3.586-2.003-1.282-0.152-2.455 0.272-3.52 1.27v0z" fill="#ffffff" data-fill-palette-color="accent"></path><path d="M96.838 16.83l-5.31 1.379 2.673 10.294-3.307 0.859-6.831-26.311 8.381-2.176c2.447-0.635 4.561-0.402 6.341 0.7 1.774 1.104 2.977 2.873 3.609 5.306v0c0.656 2.525 0.497 4.644-0.476 6.357-0.98 1.714-2.673 2.911-5.08 3.592zM88.112 5.048l2.68 10.324 5.074-1.317c1.472-0.382 2.486-1.117 3.042-2.204 0.551-1.079 0.613-2.439 0.187-4.081v0c-0.409-1.577-1.14-2.735-2.191-3.475-1.053-0.746-2.286-0.936-3.699-0.569v0z" fill="#ffffff" data-fill-palette-color="accent"></path><path d="M156.591 14.402l-0.682 2.85-9.348-2.237-2.242 9.368 10.897 2.607-0.682 2.85-14.22-3.403 6.327-26.437 14.032 3.358-0.687 2.87-10.709-2.563-2.034 8.5z" fill="#ffffff" data-fill-palette-color="accent"></path><path d="M203.445 43.078l-1.919 2.215-7.265-6.293-6.307 7.281 8.469 7.335-1.918 2.215-11.052-9.572 17.798-20.548 10.906 9.447-1.932 2.23-8.323-7.209-5.723 6.606z" fill="#ffffff" data-fill-palette-color="accent"></path><path d="M217.385 96.402l8.996-11.563-3.963-1.344-8.689 3.309-1.216-3.194 25.404-9.674 1.216 3.193-12.271 4.673 3.574 1.037 12.1 3.226 1.462 3.837-14.334-3.991-10.825 14.31z" fill="#ffffff" data-fill-palette-color="accent"></path><path d="M16.334 169.51v0c1.297-0.447 2.17-1.142 2.618-2.083 0.454-0.943 0.69-2.447 0.706-4.512 0.026-2.061 0.232-3.702 0.619-4.922 0.387-1.22 0.957-2.232 1.71-3.036 0.761-0.799 1.736-1.403 2.925-1.813v0c2.064-0.712 4.001-0.611 5.81 0.302 1.812 0.92 3.102 2.494 3.871 4.725v0c0.525 1.521 0.651 2.997 0.38 4.427-0.272 1.431-0.907 2.676-1.908 3.736-0.992 1.064-2.216 1.848-3.673 2.35v0l-1.134-3.287c1.61-0.555 2.723-1.372 3.339-2.449 0.613-1.084 0.669-2.351 0.168-3.802v0c-0.458-1.329-1.18-2.228-2.163-2.697-0.993-0.473-2.157-0.479-3.492-0.018v0c-1.099 0.379-1.881 1.088-2.345 2.128-0.47 1.042-0.712 2.487-0.724 4.336v0c0.034 2.856-0.379 5.047-1.24 6.574-0.858 1.533-2.291 2.646-4.297 3.338v0c-2.109 0.727-4.036 0.623-5.782-0.312-1.737-0.931-3.013-2.579-3.828-4.943v0c-0.522-1.514-0.675-3.024-0.458-4.53 0.222-1.514 0.803-2.844 1.745-3.991 0.95-1.143 2.198-1.981 3.744-2.514v0l1.134 3.288c-1.604 0.553-2.698 1.435-3.281 2.644-0.584 1.21-0.609 2.588-0.076 4.134v0c0.498 1.444 1.24 2.404 2.227 2.879 0.993 0.473 2.128 0.489 3.405 0.048z" fill="#ffffff" data-fill-palette-color="accent"></path><path d="M49.037 208.67l-4.064-3.804-7.373 7.876-2.524-2.363 18.827-20.112 6.41 6.001c1.87 1.751 2.814 3.685 2.832 5.803 0.027 2.118-0.831 4.107-2.572 5.967v0c-1.811 1.934-3.717 2.947-5.718 3.037-1.996 0.095-3.935-0.707-5.818-2.405zM54.383 194.814l-7.38 7.883 3.886 3.638c1.12 1.049 2.295 1.519 3.526 1.412 1.225-0.112 2.425-0.795 3.598-2.049v0c1.127-1.204 1.724-2.46 1.791-3.768 0.062-1.303-0.445-2.458-1.52-3.464v0z" fill="#ffffff" data-fill-palette-color="accent"></path><path d="M97.174 233.197l-5.388-1.398-2.71 10.443-3.346-0.869 6.919-26.665 8.499 2.205c2.48 0.643 4.234 1.891 5.261 3.743 1.036 1.847 1.234 4.004 0.594 6.471v0c-0.665 2.565-1.855 4.365-3.569 5.4-1.708 1.037-3.794 1.261-6.26 0.67zM95.244 218.471l-2.712 10.453 5.152 1.337c1.485 0.385 2.742 0.237 3.772-0.446 1.023-0.684 1.749-1.858 2.181-3.52v0c0.414-1.596 0.338-2.985-0.229-4.166-0.568-1.174-1.566-1.946-2.992-2.316v0z" fill="#ffffff" data-fill-palette-color="accent"></path><path d="M154.134 226.088l0.69 2.89-9.477 2.263 2.269 9.497 11.045-2.638 0.69 2.89-14.408 3.441-6.401-26.794 14.221-3.397 0.695 2.909-10.858 2.594 2.057 8.609z" fill="#ffffff" data-fill-palette-color="accent"></path><path d="M196.339 199.783l1.943 2.248-7.372 6.372 6.385 7.387 8.591-7.426 1.943 2.247-11.207 9.687-18.015-20.842 11.062-9.561 1.956 2.263-8.446 7.3 5.788 6.697z" fill="#ffffff" data-fill-palette-color="accent"></path><path d="M236.364 161.981l-14.61 2.661 2.092 3.699 8.797 3.365-1.235 3.23-25.73-9.843 1.235-3.23 12.425 4.753-2.001-3.197-6.96-10.609 1.485-3.883 8.131 12.686 17.849-3.496z" fill="#ffffff" data-fill-palette-color="accent"></path><path d="M0.434 125.538c0-5.812 4.712-10.524 10.523-10.524 5.812 0 10.524 4.712 10.524 10.524 0 5.812-4.712 10.524-10.524 10.523-5.812 0-10.524-4.712-10.523-10.523z" fill="#ffffff" data-fill-palette-color="accent"></path><path d="M221.099 125.538c0-5.812 4.712-10.524 10.523-10.524 5.812 0 10.524 4.712 10.524 10.524 0 5.812-4.712 10.524-10.524 10.523-5.812 0-10.524-4.712-10.523-10.523z" fill="#ffffff" data-fill-palette-color="accent"></path></g></svg></g></svg></g></svg></g><defs></defs></svg><rect width="395.52" height="139.18240215446713" fill="none" stroke="none" visibility="hidden"></rect></g></svg></g></svg>